HIERARCHY
ROOT Hips
{
	OFFSET 0.00 0.00 0.00
	CHANNELS 6 Xposition Yposition Zposition Yrotation Xrotation Zrotation
	JOINT LHipJoint
	{
		OFFSET	0.0000	0.0000	0.0000
		CHANNELS 3 Yrotation Xrotation Zrotation
		JOINT LeftUpLeg
		{
			OFFSET	1.0138	-0.0809	-0.0827
			CHANNELS 3 Yrotation Xrotation Zrotation
			JOINT LeftLeg
			{
				OFFSET	0.4110	-3.9095	0.3245
				CHANNELS 3 Yrotation Xrotation Zrotation
				JOINT LeftFoot
				{
					OFFSET	0.3810	-4.0555	-0.1470
					CHANNELS 3 Yrotation Xrotation Zrotation
					JOINT LeftToeBase
					{
						OFFSET	0.1396	-0.4462	1.3079
						CHANNELS 3 Yrotation Xrotation Zrotation
						End Site
						{
							OFFSET 0.0161 -0.0248 0.1809
						}
					}
				}
			}
		}
	}
	JOINT LowerBack
	{
		OFFSET	0.0000	0.7977	-0.3873
		CHANNELS 3 Yrotation Xrotation Zrotation
		JOINT Spine
		{
			OFFSET	0.0000	1.4131	0.1715
			CHANNELS 3 Yrotation Xrotation Zrotation
			JOINT Spine1
			{
				OFFSET	0.0000	1.4392	-0.1032
				CHANNELS 3 Yrotation Xrotation Zrotation
				JOINT LeftShoulder
				{
					OFFSET	0.2274	1.0382	0.4032
					CHANNELS 3 Yrotation Xrotation Zrotation
					JOINT LeftArm
					{
						OFFSET	1.4730	-0.2267	-0.0231
						CHANNELS 3 Yrotation Xrotation Zrotation
						JOINT LeftForeArm
						{
							OFFSET	1.6131	-1.8059	0.0081
							CHANNELS 3 Yrotation Xrotation Zrotation
							JOINT LeftHand
							{
								OFFSET	1.2197	-1.2423	1.6317
								CHANNELS 3 Yrotation Xrotation Zrotation
								JOINT LThumb
								{
									OFFSET	0.0109	-0.0753	0.4387
									CHANNELS 3 Yrotation Xrotation Zrotation
									End Site
									{
										OFFSET -0.2090 -0.0868 0.2097
									}
								}
								JOINT LeftFingerBase
								{
									OFFSET	0.1071	-0.1567	0.2607
									CHANNELS 3 Yrotation Xrotation Zrotation
									JOINT LeftHandFinger1
									{
										OFFSET	0.1706	-0.2492	0.6830
										CHANNELS 3 Yrotation Xrotation Zrotation
										End Site
										{
											OFFSET 0.0335 -0.1507 0.2071
										}
									}
								}
							}
						}
					}
				}
				JOINT Neck
				{
					OFFSET	0.0000	1.7498	0.2381
					CHANNELS 3 Yrotation Xrotation Zrotation
					JOINT Neck1
					{
						OFFSET	0.0000	0.5043	0.1959
						CHANNELS 3 Yrotation Xrotation Zrotation
						JOINT Head
						{
							OFFSET	0.0000	0.5044	0.1959
							CHANNELS 3 Yrotation Xrotation Zrotation
							End Site
							{
								OFFSET 0.0000 1.4798 -0.0693
							}
						}
					}
				}
				JOINT RightShoulder
				{
					OFFSET	-0.2274	1.0382	0.4032
					CHANNELS 3 Yrotation Xrotation Zrotation
					JOINT RightArm
					{
						OFFSET	-1.4730	-0.2267	-0.0231
						CHANNELS 3 Yrotation Xrotation Zrotation
						JOINT RightForeArm
						{
							OFFSET	-1.6131	-1.8059	0.0081
							CHANNELS 3 Yrotation Xrotation Zrotation
							JOINT RightHand
							{
								OFFSET	-1.2197	-1.2423	1.6317
								CHANNELS 3 Yrotation Xrotation Zrotation
								JOINT RThumb
								{
									OFFSET	-0.0109	-0.0753	0.4387
									CHANNELS 3 Yrotation Xrotation Zrotation
									End Site
									{
										OFFSET 0.2090 -0.0868 0.2097
									}
								}
								JOINT RightFingerBase
								{
									OFFSET	-0.1071	-0.1567	0.2607
									CHANNELS 3 Yrotation Xrotation Zrotation
									JOINT RightHandFinger1
									{
										OFFSET	-0.1706	-0.2492	0.6830
										CHANNELS 3 Yrotation Xrotation Zrotation
										End Site
										{
											OFFSET -0.0335 -0.1507 0.2071
										}
									}
								}
							}
						}
					}
				}
			}
		}
	}
	JOINT RHipJoint
	{
		OFFSET	0.0000	0.0000	0.0000
		CHANNELS 3 Yrotation Xrotation Zrotation
		JOINT RightUpLeg
		{
			OFFSET	-1.0138	-0.0809	-0.0827
			CHANNELS 3 Yrotation Xrotation Zrotation
			JOINT RightLeg
			{
				OFFSET	-0.4110	-3.9095	0.3245
				CHANNELS 3 Yrotation Xrotation Zrotation
				JOINT RightFoot
				{
					OFFSET	-0.3810	-4.0555	-0.1470
					CHANNELS 3 Yrotation Xrotation Zrotation
					JOINT RightToeBase
					{
						OFFSET	-0.1396	-0.4462	1.3079
						CHANNELS 3 Yrotation Xrotation Zrotation
						End Site
						{
							OFFSET -0.0161 -0.0248 0.1809
						}
					}
				}
			}
		}
	}
}
MOTION
Frames: 9
Frame Time: 0.0333333
0.0262 8.7086 0.1321 2.0061 -1.9298 1.8297 0.0000 -0.0000 0.0000 6.9361 -2.7521 2.2948 1.8462 12.6562 0.2941 -0.5788 -5.0605 6.5193 0.0000 -4.2299 0.0000 0.0000 -0.0000 0.0000 1.1065 3.8391 -0.8874 2.1634 7.6901 -1.5615 8.5047 -0.2007 -0.5352 -9.6845 -11.2847 -28.6459 19.1820 21.2981 1.4732 -11.2502 24.8365 19.7220 32.3652 1.3335 15.5376 3.2323 14.0994 -2.5019 0.0850 -11.4512 2.5705 0.5034 5.0801 1.3490 0.5034 5.0802 1.3490 2.8195 -21.2569 -0.7275 10.1373 2.4958 1.9928 -2.6473 0.7987 26.3289 -9.3132 11.4252 1.1363 1.0470 30.9026 -5.3320 -31.1658 -0.1892 -14.3433 -1.8263 15.5154 3.7008 1.0352 -9.9704 -1.7046 0.0000 -0.0000 0.0000 -11.3179 -2.7794 -4.4275 -1.8416 16.0759 -0.2798 0.8550 -9.8563 -4.9607 -0.0000 -3.1055 0.0000 
0.0252 8.7084 0.1352 2.0162 -1.8643 1.8050 0.0000 -0.0000 0.0000 6.9298 -2.8449 2.2948 1.8564 12.7176 0.2969 -0.5824 -5.1007 6.5163 0.0000 -4.2515 0.0000 0.0000 -0.0000 0.0000 1.1085 3.8200 -0.9001 2.1668 7.6522 -1.5870 8.5019 -0.2010 -0.5295 -9.6699 -11.2825 -28.6730 19.2117 21.3255 1.4835 -11.2727 24.8492 19.7359 32.3652 1.3335 15.5376 3.2323 14.0993 -2.5019 0.0850 -11.4512 2.5705 0.4939 5.0622 1.3793 0.4939 5.0623 1.3793 2.8184 -21.2703 -0.7789 10.1405 2.4986 1.9965 -2.6720 0.7921 26.3658 -9.3439 11.4580 1.1308 1.2175 30.8631 -5.2707 -31.1658 -0.1892 -14.3433 -1.8263 15.5154 3.7008 1.0352 -9.9705 -1.7046 0.0000 -0.0000 0.0000 -11.2937 -2.8359 -4.4074 -1.8443 16.0886 -0.2806 0.8544 -9.8432 -4.9653 0.0000 -3.1276 0.0000 
0.0245 8.7080 0.1388 1.9988 -1.8373 1.7947 0.0000 -0.0000 0.0000 6.9432 -2.8757 2.3146 1.8672 12.7779 0.2998 -0.5863 -5.1395 6.5164 0.0000 -4.2742 -0.0000 0.0000 -0.0000 0.0000 1.1136 3.8109 -0.9105 2.1764 7.6343 -1.6089 8.5094 -0.2016 -0.5406 -9.6486 -11.2748 -28.7033 19.2504 21.3613 1.4969 -11.3109 24.8766 19.7402 32.3652 1.3335 15.5376 3.2324 14.0993 -2.5019 0.0850 -11.4512 2.5705 0.4791 5.0500 1.4305 0.4791 5.0501 1.4305 2.8114 -21.2559 -0.8420 10.1530 2.5027 1.9960 -2.6902 0.7856 26.3988 -9.3701 11.4858 1.1261 1.3392 30.8397 -5.1978 -31.1658 -0.1892 -14.3433 -1.8263 15.5155 3.7008 1.0352 -9.9705 -1.7046 0.0000 -0.0000 0.0000 -11.2821 -2.8539 -4.3909 -1.8519 16.1198 -0.2828 0.8568 -9.8638 -4.9694 0.0000 -3.1490 -0.0000 
0.0236 8.7073 0.1431 1.9688 -1.8096 1.7834 0.0000 -0.0000 0.0000 6.9648 -2.9022 2.3393 1.8793 12.8446 0.3030 -0.5917 -5.1976 6.5113 0.0000 -4.2972 -0.0000 0.0000 -0.0000 0.0000 1.1175 3.8043 -0.8909 2.1855 7.6207 -1.5696 8.5197 -0.2022 -0.5561 -9.6362 -11.2647 -28.7234 19.2902 21.3980 1.5107 -11.3634 24.9267 19.7458 32.3652 1.3335 15.5376 3.2323 14.0994 -2.5019 0.0850 -11.4512 2.5705 0.4657 5.0510 1.3854 0.4657 5.0510 1.3854 2.6813 -21.2955 -0.7076 10.1498 2.4995 1.9927 -2.6939 0.7913 26.3680 -9.4045 11.5224 1.1200 1.3776 30.7902 -5.1245 -31.1658 -0.1892 -14.3433 -1.8264 15.5154 3.7008 1.0352 -9.9705 -1.7047 0.0000 -0.0000 0.0000 -11.2678 -2.8746 -4.3741 -1.8619 16.1651 -0.2857 0.8606 -9.8991 -4.9733 -0.0000 -3.1617 -0.0000 
0.0230 8.7064 0.1471 1.9479 -1.7442 1.7731 0.0000 -0.0000 0.0000 6.9707 -2.9874 2.3536 1.8945 12.9388 0.3072 -0.5966 -5.2530 6.5052 0.0000 -4.3343 -0.0000 0.0000 -0.0000 0.0000 1.1224 3.7865 -0.8919 2.1956 7.5853 -1.5733 8.5278 -0.2028 -0.5675 -9.6384 -11.2549 -28.7374 19.3327 21.4373 1.5254 -11.4077 24.9634 19.7584 32.3652 1.3335 15.5376 3.2323 14.0993 -2.5019 0.0850 -11.4512 2.5705 0.4529 5.0581 1.3789 0.4529 5.0582 1.3789 2.5755 -21.3344 -0.5836 10.1556 2.5010 1.9924 -2.7219 0.7612 26.3885 -9.4623 11.5840 1.1095 1.3719 30.7403 -5.1629 -31.1658 -0.1892 -14.3433 -1.8264 15.5155 3.7008 1.0352 -9.9705 -1.7046 0.0000 -0.0000 0.0000 -11.2431 -2.9407 -4.3501 -1.8731 16.2135 -0.2889 0.8642 -9.9345 -4.9762 -0.0000 -3.1770 0.0000 
0.0233 8.7058 0.1512 1.9159 -1.7192 1.7728 0.0000 -0.0000 0.0000 6.9696 -3.0241 2.3586 1.9122 13.0443 0.3121 -0.6024 -5.3099 6.5047 0.0000 -4.3810 0.0000 0.0000 -0.0000 0.0000 1.1266 3.7814 -0.8989 2.2034 7.5753 -1.5895 8.5404 -0.2035 -0.5877 -9.6487 -11.2438 -28.7280 19.3705 21.4721 1.5386 -11.4291 24.9658 19.7805 32.3652 1.3335 15.5376 3.2323 14.0993 -2.5019 0.0850 -11.4512 2.5705 0.4432 5.0558 1.4043 0.4432 5.0559 1.4044 2.5338 -21.3350 -0.5479 10.1732 2.5045 1.9884 -2.7762 0.7032 26.4221 -9.5203 11.6457 1.0990 1.3366 30.7226 -5.2310 -31.1658 -0.1892 -14.3433 -1.8263 15.5155 3.7008 1.0352 -9.9705 -1.7046 0.0000 -0.0000 0.0000 -11.2467 -2.9734 -4.3509 -1.8842 16.2684 -0.2921 0.8667 -9.9658 -4.9759 0.0000 -3.1972 0.0000 
0.0234 8.7048 0.1558 1.8829 -1.6793 1.7714 0.0000 -0.0000 0.0000 6.9601 -3.0962 2.3669 1.9335 13.1705 0.3181 -0.6088 -5.3690 6.5062 0.0000 -4.4335 0.0000 0.0000 -0.0000 0.0000 1.1208 3.7720 -0.8835 2.1930 7.5563 -1.5613 8.5424 -0.2033 -0.5914 -9.6448 -11.2295 -28.7254 19.4013 21.5005 1.5493 -11.4379 24.9442 19.8123 32.3653 1.3336 15.5377 3.2324 14.0994 -2.5019 0.0850 -11.4512 2.5705 0.4400 5.0581 1.3760 0.4399 5.0581 1.3760 2.4837 -21.3459 -0.4893 10.1726 2.5018 1.9850 -2.7971 0.6889 26.3674 -9.5697 11.6982 1.0900 1.3139 30.6456 -5.2460 -31.1658 -0.1892 -14.3433 -1.8263 15.5154 3.7008 1.0352 -9.9705 -1.7047 0.0000 -0.0000 0.0000 -11.2412 -3.0315 -4.3473 -1.8986 16.3499 -0.2962 0.8703 -10.0079 -4.9750 -0.0000 -3.2334 0.0000 
0.0228 8.7037 0.1601 1.8462 -1.6155 1.7502 0.0000 -0.0000 0.0000 6.9662 -3.2086 2.3943 1.9598 13.3320 0.3255 -0.6165 -5.4469 6.5034 -0.0000 -4.4960 0.0000 0.0000 -0.0000 0.0000 1.1196 3.7520 -0.8757 2.1912 7.5163 -1.5499 8.5447 -0.2030 -0.6006 -9.6245 -11.2108 -28.7358 19.4284 21.5254 1.5588 -11.4586 24.9321 19.8463 32.3654 1.3336 15.5377 3.2323 14.0994 -2.5019 0.0850 -11.4512 2.5705 0.4354 5.0664 1.3743 0.4355 5.0665 1.3743 2.4549 -21.3532 -0.4657 10.1992 2.5081 1.9881 -2.8076 0.6959 26.3269 -9.5882 11.7179 1.0866 1.2554 30.5241 -5.3490 -31.1658 -0.1892 -14.3433 -1.8263 15.5154 3.7008 1.0352 -9.9705 -1.7047 0.0000 -0.0000 0.0000 -11.2157 -3.0997 -4.3154 -1.9132 16.4146 -0.3005 0.8740 -10.0450 -4.9780 -0.0000 -3.2493 0.0000 
0.0225 8.7025 0.1646 1.8057 -1.5735 1.7338 0.0000 -0.0000 0.0000 6.9799 -3.3006 2.4092 1.9854 13.4997 0.3328 -0.6239 -5.5284 6.4964 -0.0000 -4.5599 0.0000 0.0000 -0.0000 0.0000 1.1236 3.7361 -0.8758 2.1993 7.4846 -1.5526 8.5633 -0.2037 -0.6381 -9.6016 -11.1931 -28.7285 19.4331 21.5298 1.5604 -11.4805 24.9610 19.8792 32.3652 1.3335 15.5376 3.2323 14.0994 -2.5020 0.0850 -11.4512 2.5705 0.4260 5.0737 1.3936 0.4261 5.0738 1.3936 2.4329 -21.3651 -0.4788 10.2489 2.5205 1.9916 -2.8031 0.7025 26.3315 -9.5678 11.6963 1.0903 1.1842 30.3736 -5.4238 -31.1658 -0.1892 -14.3433 -1.8263 15.5154 3.7008 1.0352 -9.9705 -1.7046 0.0000 -0.0000 0.0000 -11.2057 -3.1643 -4.2945 -1.9297 16.5066 -0.3054 0.8768 -10.0804 -4.9773 -0.0000 -3.2749 0.0000 
